<svg width="22" height="22" viewBox="0 0 22 22" fill="none" xmlns="http://www.w3.org/2000/svg">
<path d="M13.9559 1.35254L13.9569 1.35156L13.9667 1.36035L14.2567 1.59961L14.1874 1.36621L14.1668 1.2959V1.25098C14.1561 1.23553 14.1273 1.20147 14.0575 1.15039C13.9176 1.04812 13.6873 0.936199 13.37 0.833984C12.7409 0.631419 11.8772 0.5 10.9999 0.5C10.1225 0.500015 9.25875 0.631385 8.62974 0.833984C8.3124 0.936197 8.08207 1.04812 7.94224 1.15039C7.87237 1.20154 7.8435 1.23561 7.83286 1.25098V1.2959L7.81236 1.36621L6.86314 4.53027L6.57407 4.5918C5.68143 4.7827 4.95263 5.02539 4.42759 5.29199L4.54575 5.47949C5.04566 5.22889 5.74737 4.99579 6.61997 4.80957L7.03794 4.71973L7.19419 4.2002L7.31919 3.78516L7.74693 3.84961C7.94777 3.87971 8.14969 3.90624 8.35142 3.92969C10.1111 4.13453 11.8886 4.13451 13.6483 3.92969L14.2528 3.84961L14.6815 3.78516L14.8055 4.2002L14.9608 4.71973L15.3797 4.80957L15.742 4.8916C16.5609 5.08973 17.2062 5.331 17.6483 5.58496H17.6493C17.7094 5.61919 17.7684 5.65596 17.826 5.69434L18.4432 6.10547C18.4398 5.97492 18.3193 5.71469 17.7616 5.39355C17.2289 5.08693 16.4317 4.80677 15.4266 4.5918L15.1366 4.53027L15.0516 4.24707L14.451 2.24609H14.2196L14.451 3.0166L14.62 3.57715L14.0399 3.65527C12.1624 3.90955 10.2598 3.92758 8.37778 3.70898H8.37583C8.22159 3.69038 8.08233 3.6725 7.95884 3.65527L7.38169 3.5752L7.54966 3.0166L7.99595 1.52734L8.03013 1.41016L8.00669 1.38672L8.00864 1.38477L8.03111 1.40723L8.03794 1.38672L8.02329 1.37012L8.03306 1.36133L8.03989 1.35645L8.04478 1.3623L8.05747 1.32227L8.24693 1.22559C8.35643 1.1696 8.50536 1.10675 8.69907 1.04492C9.30221 0.850619 10.1417 0.722671 10.9999 0.722656C11.8587 0.722656 12.6987 0.851158 13.3016 1.04492H13.3006C13.3765 1.0682 13.4516 1.09375 13.5252 1.12305L13.7479 1.22266L13.9413 1.31934L13.9491 1.34766M13.9559 1.35254C13.954 1.35101 13.9516 1.34954 13.9491 1.34766M13.9559 1.35254L13.952 1.35645M13.9559 1.35254C13.9595 1.35536 13.9623 1.35722 13.9637 1.3584L13.9657 1.36035M13.9491 1.34766C13.9427 1.34282 13.935 1.33634 13.9256 1.33008C13.9162 1.32377 13.8948 1.30978 13.8661 1.2959C13.8514 1.28882 13.8278 1.2789 13.7977 1.26953C13.7702 1.26097 13.7173 1.24611 13.6493 1.24609V1.63281M13.9491 1.34766L13.952 1.35645M13.6493 1.63281V1.70215L13.7303 1.6084M13.6493 1.63281L13.7303 1.6084M13.6493 1.63281L13.7303 1.6084M13.7303 1.6084L13.952 1.35645M13.952 1.35645L13.9569 1.37109M13.9569 1.37109L13.9627 1.39062L13.9803 1.37207C13.98 1.37174 13.9784 1.3709 13.9764 1.36914C13.9748 1.36766 13.9706 1.36448 13.9657 1.36035M13.9569 1.37109L13.9657 1.36035M13.9569 1.37109L13.9657 1.36035M3.77525 5.72852C3.72811 5.8384 3.73321 5.94034 3.73911 5.98828L3.55747 6.11133L4.17173 6.52539C4.48336 6.73537 4.95709 6.95347 5.59458 7.14941C6.94592 7.56491 8.85714 7.833 10.9999 7.83301C13.1426 7.83301 15.0538 7.56492 16.4051 7.14941C17.0426 6.95349 17.5169 6.73544 17.829 6.52441L18.4432 6.1084L18.4442 6.11133C18.4441 6.21245 18.3763 6.40346 18.0262 6.6582C17.6866 6.90532 17.1626 7.14938 16.4706 7.3623C15.0925 7.78623 13.1581 8.05566 10.9999 8.05566C8.84158 8.05565 6.90718 7.78625 5.52915 7.3623C4.83709 7.14939 4.31313 6.90531 3.97349 6.6582C3.62361 6.40353 3.55563 6.21243 3.55552 6.11133C3.55552 6.03069 3.60149 5.89711 3.77525 5.72852ZM4.69224 5.72461C4.69392 5.7284 4.6949 5.73513 4.6981 5.74316L4.45103 6.11133L4.51646 6.20801L4.25571 5.94727L4.66392 5.6709C4.66987 5.68077 4.68136 5.70013 4.69224 5.72461Z" fill="#1C39BB" stroke="#1C39BB"/>
<path d="M15.3281 8.67029C15.1755 9.57958 14.7393 10.4243 14.0732 11.0775C13.2528 11.882 12.1491 12.3324 11 12.3324C9.85084 12.3323 8.74718 11.8822 7.92676 11.0775C7.2607 10.4242 6.8245 9.57962 6.67188 8.67029C6.74878 8.6853 6.82621 8.69736 6.90332 8.7113C7.06857 9.59894 7.51937 10.4124 8.19141 11.0258C8.95908 11.7263 9.96071 12.1156 11 12.1156C12.0393 12.1156 13.0409 11.7263 13.8086 11.0258C14.4806 10.4124 14.9304 9.59887 15.0957 8.7113C15.1731 8.69731 15.2509 8.68535 15.3281 8.67029Z" fill="#1C39BB" stroke="#1C39BB"/>
<path d="M11.0007 14.5555C12.8055 14.5556 15.5059 14.7945 17.739 15.4335C18.8582 15.7537 19.823 16.1647 20.4978 16.6688C21.1668 17.1687 21.4996 17.7175 21.4998 18.3329V21.4999H5.38452C5.38625 21.463 5.38843 21.4258 5.38843 21.3885V21.2782H17.6111V18.4442H14.7996L14.7224 18.4696L14.614 18.5057C14.4192 18.5682 14.1448 18.6498 13.8025 18.7303C12.8838 18.9454 11.9432 19.0548 10.9998 19.0555L10.5808 19.0487C9.62328 19.0154 8.80305 18.8735 8.19897 18.7313L8.198 18.7303C7.88734 18.6575 7.57984 18.5704 7.2771 18.4696L7.19995 18.4442H6.95679C7.0128 18.3721 7.06666 18.2983 7.11792 18.2225H7.83374V14.7528C8.88494 14.6288 9.94202 14.5608 11.0007 14.5555ZM17.2224 18.2225H17.7224C17.7518 18.2226 17.7798 18.234 17.8005 18.2548C17.8213 18.2755 17.8336 18.3036 17.8337 18.3329V21.2782H21.2781V18.3329C21.2779 17.8148 21.0039 17.3238 20.365 16.8466C19.7571 16.3924 18.8895 16.0103 17.866 15.703L17.2224 15.5096V18.2225ZM16.9998 15.4637L16.6072 15.3778C15.9921 15.2427 15.3594 15.1327 14.7351 15.0468L14.1667 14.9686V18.2225H16.9998V15.4637ZM13.9441 14.9452L13.4919 14.9022C12.6643 14.823 11.8331 14.7819 11.0017 14.7782H10.9998C10.279 14.7782 9.41935 14.8165 8.50854 14.9022L8.05542 14.9452V18.4735L8.44995 18.5594C9.28767 18.7407 10.1426 18.832 10.9998 18.8329H11.0007C11.8578 18.832 12.7128 18.7408 13.5505 18.5594L13.9441 18.4735V14.9452Z" fill="#1C39BB" stroke="#1C39BB"/>
<path d="M2.94434 17.833H2.44434C1.92868 17.833 1.43396 17.6283 1.06934 17.2637C0.704769 16.899 0.5 16.4043 0.5 15.8887V11.6113C0.5 11.5819 0.511389 11.5531 0.532227 11.5322C0.553063 11.5114 0.581856 11.5 0.611328 11.5C0.640593 11.5001 0.668694 11.5116 0.689453 11.5322C0.71029 11.5531 0.722656 11.5819 0.722656 11.6113V15.8887C0.722656 16.3454 0.903676 16.7835 1.22656 17.1064C1.54952 17.4294 1.98762 17.6113 2.44434 17.6113H2.94434V11.6113C2.94434 11.5819 2.95576 11.5531 2.97656 11.5322C2.9974 11.5114 3.02619 11.5 3.05566 11.5C3.08494 11.5 3.11301 11.5116 3.13379 11.5322C3.15463 11.5531 3.16699 11.5819 3.16699 11.6113V17.6113H3.66699C4.12364 17.6112 4.56186 17.4294 4.88477 17.1064C5.20759 16.7835 5.38867 16.3453 5.38867 15.8887V11.6113C5.38867 11.5819 5.40104 11.5531 5.42188 11.5322C5.44267 11.5116 5.47071 11.5 5.5 11.5C5.52929 11.5 5.55733 11.5116 5.57812 11.5322C5.59896 11.5531 5.61133 11.5819 5.61133 11.6113V15.8887C5.61133 16.4043 5.4065 16.899 5.04199 17.2637C4.67741 17.6283 4.18258 17.8329 3.66699 17.833H3.16699V21.3887C3.16699 21.4181 3.15463 21.4469 3.13379 21.4678C3.11301 21.4884 3.08493 21.5 3.05566 21.5C3.02619 21.5 2.9974 21.4886 2.97656 21.4678C2.95574 21.4469 2.94434 21.4181 2.94434 21.3887V17.833Z" fill="#1C39BB" stroke="#1C39BB"/>
</svg>
