<svg width="23" height="22" viewBox="0 0 23 22" fill="none" xmlns="http://www.w3.org/2000/svg">
<path d="M5.38892 9.7778H10.2778V4.88892H12.7222V9.7778H17.6111V12.2222H12.7222V17.1111H10.2778V12.2222H5.38892V9.7778Z" fill="#1C39BB"/>
<path fill-rule="evenodd" clip-rule="evenodd" d="M2.33333 0C1.8471 0 1.38079 0.193154 1.03697 0.536971C0.693154 0.880788 0.5 1.3471 0.5 1.83333V20.1667C0.5 20.6529 0.693154 21.1192 1.03697 21.463C1.38079 21.8068 1.8471 22 2.33333 22H20.6667C21.1529 22 21.6192 21.8068 21.963 21.463C22.3068 21.1192 22.5 20.6529 22.5 20.1667V1.83333C22.5 1.3471 22.3068 0.880788 21.963 0.536971C21.6192 0.193154 21.1529 0 20.6667 0H2.33333ZM21.2778 1.83333C21.2778 1.67126 21.2134 1.51582 21.0988 1.40121C20.9842 1.28661 20.8287 1.22222 20.6667 1.22222H2.33333C2.17126 1.22222 2.01582 1.28661 1.90121 1.40121C1.78661 1.51582 1.72222 1.67126 1.72222 1.83333V20.1667C1.72222 20.3287 1.78661 20.4842 1.90121 20.5988C2.01582 20.7134 2.17126 20.7778 2.33333 20.7778H20.6667C20.8287 20.7778 20.9842 20.7134 21.0988 20.5988C21.2134 20.4842 21.2778 20.3287 21.2778 20.1667V1.83333Z" fill="#1C39BB"/>
</svg>
