<svg width="22" height="22" viewBox="0 0 22 22" fill="none" xmlns="http://www.w3.org/2000/svg">
<path d="M4.04102 4.81543L7.23828 12.8818C7.49615 13.8792 7.25122 14.5295 6.74023 14.959C6.18187 15.4283 5.2164 15.7109 3.90625 15.7109C2.59722 15.7109 1.65874 15.4286 1.11328 14.9619C0.611852 14.5328 0.363991 13.8783 0.576172 12.8789L3.77246 4.81543L3.90625 4.47656L4.04102 4.81543ZM18.1982 4.81543L21.3984 12.8887C21.6533 13.8819 21.4081 14.5305 20.8984 14.959C20.3401 15.4283 19.3745 15.7109 18.0645 15.7109C16.7552 15.7109 15.816 15.4287 15.2705 14.9619C14.7692 14.5328 14.5222 13.8782 14.7344 12.8789L17.9297 4.81543L18.0635 4.47656L18.1982 4.81543ZM3.43848 8.21875L1.80469 12.5605L1.55078 13.2373H6.2627L6.00781 12.5605L4.375 8.21875L3.90625 6.97461L3.43848 8.21875ZM17.5967 8.21875L15.9629 12.5605L15.708 13.2373H20.4199L20.166 12.5605L18.5322 8.21875L18.0645 6.97461L17.5967 8.21875ZM10.9854 1.81543C10.5538 1.81546 10.1468 1.99863 9.85156 2.3125C9.55724 2.62542 9.3965 3.0435 9.39648 3.47363C9.39648 3.90378 9.55723 4.32183 9.85156 4.63477C10.1468 4.94867 10.5537 5.13181 10.9854 5.13184C11.417 5.13184 11.8248 4.94874 12.1201 4.63477C12.4143 4.32186 12.5742 3.90364 12.5742 3.47363C12.5742 3.04362 12.4143 2.62539 12.1201 2.3125C11.8248 1.99853 11.417 1.81543 10.9854 1.81543ZM10.3965 6.41602L10.0869 6.28809C9.29759 5.96217 8.68681 5.31923 8.37305 4.45996L8.25293 4.13184H1.68359V2.81543H8.27637L8.38965 2.47168C8.78474 1.27221 9.83415 0.500041 10.9854 0.5C12.1363 0.5 13.1882 1.27229 13.5938 2.47559L13.708 2.81543H20.2871V4.13184H13.7031L13.585 4.46484C13.2819 5.32062 12.6738 5.96014 11.8887 6.27441L11.5742 6.40039V20.1846H21.376V21.5H0.594727V20.1846H10.3965V6.41602Z" fill="#1C39BB" stroke="#1C39BB"/>
</svg>
