<svg width="23" height="22" viewBox="0 0 23 22" fill="none" xmlns="http://www.w3.org/2000/svg">
<path d="M22.0601 10.0336L17.0006 5.51723V2.44125C17.0276 1.82477 16.8331 1.22158 16.4599 0.76395C16.0868 0.306319 15.5653 0.0315905 15.0099 0H2.4713C1.91979 0.0377901 1.4039 0.315206 1.03539 0.772149C0.666888 1.22909 0.475441 1.82876 0.502528 2.44125V14.6475C0.49232 15.1322 0.612399 15.6094 0.847459 16.018C1.08252 16.4267 1.42191 16.7485 1.82238 16.9423C1.61982 17.4923 1.54087 18.0886 1.59236 18.68C1.64384 19.2714 1.8242 19.84 2.11788 20.3367C2.41156 20.8334 2.80974 21.2434 3.27806 21.5313C3.74638 21.8191 4.27077 21.9762 4.80599 21.9889C5.34122 22.0016 5.87119 21.8696 6.35019 21.6043C6.82919 21.339 7.24283 20.9483 7.55541 20.466C7.868 19.9837 8.07014 19.4242 8.1444 18.8358C8.21867 18.2474 8.16281 17.6479 7.98167 17.0888H14.9769C14.796 17.6419 14.7378 18.2352 14.8074 18.8185C14.877 19.4019 15.0722 19.958 15.3765 20.4398C15.6808 20.9217 16.0852 21.315 16.5556 21.5866C17.0259 21.8582 17.5483 22 18.0785 22C18.6087 22 19.1311 21.8582 19.6014 21.5866C20.0718 21.315 20.4762 20.9217 20.7805 20.4398C21.0849 19.958 21.2801 19.4019 21.3496 18.8185C21.4192 18.2352 21.361 17.6419 21.1802 17.0888H21.4001C21.6918 17.0888 21.9716 16.9602 22.1779 16.7313C22.3841 16.5024 22.5 16.1919 22.5 15.8682V10.9856C22.4966 10.8003 22.4553 10.6182 22.379 10.4532C22.3028 10.2883 22.1937 10.1448 22.0601 10.0336ZM20.3003 11.5715V14.6475H17.0006V8.64204L20.3003 11.5715ZM6.0019 18.3094C6.0019 18.5508 5.93739 18.7868 5.81653 18.9876C5.69568 19.1883 5.5239 19.3447 5.32293 19.4371C5.12195 19.5295 4.9008 19.5537 4.68745 19.5066C4.47409 19.4595 4.27812 19.3432 4.12429 19.1725C3.97047 19.0018 3.86572 18.7843 3.82328 18.5475C3.78084 18.3108 3.80263 18.0653 3.88587 17.8423C3.96912 17.6193 4.11009 17.4286 4.29097 17.2945C4.47184 17.1604 4.68449 17.0888 4.90202 17.0888C5.19373 17.0888 5.47348 17.2174 5.67975 17.4463C5.88602 17.6752 6.0019 17.9857 6.0019 18.3094ZM11.5013 14.6475H2.70228V2.44125H14.8009V14.6475H11.5013ZM19.2004 18.3094C19.2004 18.5508 19.1359 18.7868 19.015 18.9876C18.8942 19.1883 18.7224 19.3447 18.5214 19.4371C18.3204 19.5295 18.0993 19.5537 17.8859 19.5066C17.6726 19.4595 17.4766 19.3432 17.3228 19.1725C17.169 19.0018 17.0642 18.7843 17.0218 18.5475C16.9793 18.3108 17.0011 18.0653 17.0844 17.8423C17.1676 17.6193 17.3086 17.4286 17.4894 17.2945C17.6703 17.1604 17.883 17.0888 18.1005 17.0888C18.3922 17.0888 18.672 17.2174 18.8782 17.4463C19.0845 17.6752 19.2004 17.9857 19.2004 18.3094Z" fill="#1C39BB"/>
</svg>
