<svg width="25" height="24" viewBox="0 0 25 24" fill="none" xmlns="http://www.w3.org/2000/svg">
<path d="M10.0556 3.44444L12.5 1M7.61111 16.8889L17.3889 7.11111M12.5 23L14.9444 20.5556M18 20.5556C18.8104 20.5556 19.5876 20.2336 20.1606 19.6606C20.7336 19.0876 21.0556 18.3104 21.0556 17.5C21.0556 16.6896 20.7336 15.9124 20.1606 15.3394C19.5876 14.7664 18.8104 14.4444 18 14.4444C17.1896 14.4444 16.4124 14.7664 15.8394 15.3394C15.2664 15.9124 14.9444 16.6896 14.9444 17.5C14.9444 18.3104 15.2664 19.0876 15.8394 19.6606C16.4124 20.2336 17.1896 20.5556 18 20.5556ZM7 9.55556C7.81038 9.55556 8.58758 9.23363 9.1606 8.6606C9.73363 8.08758 10.0556 7.31038 10.0556 6.5C10.0556 5.68962 9.73363 4.91242 9.1606 4.3394C8.58758 3.76637 7.81038 3.44444 7 3.44444C6.18962 3.44444 5.41242 3.76637 4.8394 4.3394C4.26637 4.91242 3.94444 5.68962 3.94444 6.5C3.94444 7.31038 4.26637 8.08758 4.8394 8.6606C5.41242 9.23363 6.18962 9.55556 7 9.55556ZM4.55556 23C5.36594 23 6.14313 22.6781 6.71616 22.1051C7.28919 21.532 7.61111 20.7548 7.61111 19.9444C7.61111 19.1341 7.28919 18.3569 6.71616 17.7838C6.14313 17.2108 5.36594 16.8889 4.55556 16.8889C3.74517 16.8889 2.96798 17.2108 2.39495 17.7838C1.82192 18.3569 1.5 19.1341 1.5 19.9444C1.5 20.7548 1.82192 21.532 2.39495 22.1051C2.96798 22.6781 3.74517 23 4.55556 23ZM20.4444 7.11111C21.2548 7.11111 22.032 6.78919 22.605 6.21616C23.1781 5.64313 23.5 4.86594 23.5 4.05556C23.5 3.24517 23.1781 2.46798 22.605 1.89495C22.032 1.32192 21.2548 1 20.4444 1C19.6341 1 18.8569 1.32192 18.2838 1.89495C17.7108 2.46798 17.3889 3.24517 17.3889 4.05556C17.3889 4.86594 17.7108 5.64313 18.2838 6.21616C18.8569 6.78919 19.6341 7.11111 20.4444 7.11111Z" stroke="#1C39BB" stroke-width="2" stroke-linecap="round" stroke-linejoin="round"/>
</svg>
