<svg width="43" height="43" viewBox="0 0 43 43" fill="none" xmlns="http://www.w3.org/2000/svg">
<g clip-path="url(#clip0_225_121)">
<path d="M21.5 43C33.3741 43 43 33.3741 43 21.5C43 9.62588 33.3741 0 21.5 0C9.62588 0 0 9.62588 0 21.5C0 33.3741 9.62588 43 21.5 43Z" fill="#0F47AF"/>
<path d="M42.1848 21.5C42.1848 10.0761 32.9239 0.815166 21.5 0.815166C10.0761 0.815166 0.815166 10.0761 0.815166 21.5C0.815166 32.9239 10.0761 42.1848 21.5 42.1848V43C9.62588 43 0 33.3741 0 21.5C0 9.62588 9.62588 0 21.5 0C33.3741 0 43 9.62588 43 21.5C43 33.3741 33.3741 43 21.5 43V42.1848C32.9239 42.1848 42.1848 32.9239 42.1848 21.5Z" fill="white"/>
<path d="M5.14186 16.1514H17.6384L20.4638 7.45545L21.2174 9.77466L17.1112 22.4117L15.8921 21.5258L17.1726 17.5848H7.11466L5.14186 16.1514ZM11.3901 35.3814L15.2517 23.4967L7.8545 18.1223H10.293L21.0429 25.9324L19.8234 26.8182L16.4711 24.3826L13.3629 33.9481L11.3901 35.3814ZM31.6099 35.3814L21.5001 28.0362L14.1027 33.4106L14.8562 31.0915L25.606 23.2814L26.0718 24.7146L22.7193 27.1504L30.8563 33.0623L31.6099 35.3814ZM37.8581 16.1514L27.7483 23.4967L30.5736 32.1928L28.6008 30.7595L24.4949 18.1223H26.0019L27.2824 22.0633L35.4194 16.1514H37.8581ZM21.5001 4.2666L25.3615 16.1514H34.505L32.5324 17.5848H19.2449L19.7104 16.1514H23.8545L20.7465 6.58574L21.5001 4.2666Z" fill="#FCDD09"/>
<path d="M22.0096 29.4168V38.7334H20.9906V29.4168H22.0096ZM14.16 24.4538L5.2993 27.333L4.98446 26.364L13.8451 23.4847L14.16 24.4538ZM38.0155 26.364L37.7006 27.333L28.8401 24.4538L29.1549 23.4847L38.0155 26.364ZM17.2786 14.8561L16.4543 15.4551L10.978 7.91768L11.8023 7.31885L17.2786 14.8561ZM32.0221 7.91768L26.546 15.4551L25.7215 14.8561L31.1977 7.31885L32.0221 7.91768Z" fill="#FCDD09"/>
</g>
<defs>
<clipPath id="clip0_225_121">
<rect width="43" height="43" fill="white"/>
</clipPath>
</defs>
</svg>
