<svg width="24" height="22" viewBox="0 0 24 22" fill="none" xmlns="http://www.w3.org/2000/svg">
<path d="M11.75 20.75C10.1434 19.5061 8.28351 18.7134 6.33324 18.4466C4.95004 18.1375 3.54081 17.9915 2.12946 18.011C1.94887 18.0127 1.76976 17.9751 1.60246 17.9003C1.43517 17.8255 1.283 17.7149 1.15475 17.5751C1.02649 17.4352 0.924695 17.2688 0.855226 17.0855C0.785757 16.9021 0.749993 16.7054 0.75 16.5068L0.774973 2.25851C0.774213 1.87621 0.905825 1.50793 1.14306 1.22852C1.38029 0.949119 1.70535 0.779553 2.05216 0.754289C3.48887 0.722875 4.92441 0.864107 6.33324 1.17547C8.2814 1.45193 10.1398 2.24266 11.75 3.4802M11.75 20.75V3.4802M11.75 20.75C13.3566 19.5061 15.2165 18.7134 17.1668 18.4466C18.55 18.1375 19.9592 17.9915 21.3705 18.011C21.5511 18.0127 21.7302 17.9751 21.8975 17.9003C22.0648 17.8255 22.217 17.7149 22.3453 17.5751C22.4735 17.4352 22.5753 17.2688 22.6448 17.0855C22.7142 16.9021 22.75 16.7054 22.75 16.5068L22.7238 2.25851C22.7246 1.87642 22.5932 1.50832 22.3562 1.22895C22.1192 0.949577 21.7944 0.779871 21.4478 0.754289C20.0111 0.722875 18.5756 0.864107 17.1668 1.17547C15.2186 1.45193 13.3602 2.24266 11.75 3.4802" stroke="#1C39BB" stroke-width="1.5" stroke-linecap="round" stroke-linejoin="round"/>
</svg>
