<svg width="22" height="22" viewBox="0 0 22 22" fill="none" xmlns="http://www.w3.org/2000/svg">
<path d="M4.88892 9.7778H9.7778V4.88892H12.2222V9.7778H17.1111V12.2222H12.2222V17.1111H9.7778V12.2222H4.88892V9.7778Z" fill="white"/>
<path fill-rule="evenodd" clip-rule="evenodd" d="M1.83333 0C1.3471 0 0.880788 0.193154 0.536971 0.536971C0.193154 0.880788 0 1.3471 0 1.83333V20.1667C0 20.6529 0.193154 21.1192 0.536971 21.463C0.880788 21.8068 1.3471 22 1.83333 22H20.1667C20.6529 22 21.1192 21.8068 21.463 21.463C21.8068 21.1192 22 20.6529 22 20.1667V1.83333C22 1.3471 21.8068 0.880788 21.463 0.536971C21.1192 0.193154 20.6529 0 20.1667 0H1.83333ZM20.7778 1.83333C20.7778 1.67126 20.7134 1.51582 20.5988 1.40121C20.4842 1.28661 20.3287 1.22222 20.1667 1.22222H1.83333C1.67126 1.22222 1.51582 1.28661 1.40121 1.40121C1.28661 1.51582 1.22222 1.67126 1.22222 1.83333V20.1667C1.22222 20.3287 1.28661 20.4842 1.40121 20.5988C1.51582 20.7134 1.67126 20.7778 1.83333 20.7778H20.1667C20.3287 20.7778 20.4842 20.7134 20.5988 20.5988C20.7134 20.4842 20.7778 20.3287 20.7778 20.1667V1.83333Z" fill="white"/>
</svg>
