<svg width="22" height="22" viewBox="0 0 22 22" fill="none" xmlns="http://www.w3.org/2000/svg">
<path d="M21.5601 10.0336L16.5006 5.51723V2.44125C16.5276 1.82477 16.3331 1.22158 15.9599 0.76395C15.5868 0.306319 15.0653 0.0315905 14.5099 0H1.9713C1.41979 0.0377901 0.9039 0.315206 0.535394 0.772149C0.166888 1.22909 -0.0245592 1.82876 0.00252805 2.44125V14.6475C-0.00768011 15.1322 0.112399 15.6094 0.347459 16.018C0.582519 16.4267 0.921912 16.7485 1.32238 16.9423C1.11982 17.4923 1.04087 18.0886 1.09236 18.68C1.14384 19.2714 1.3242 19.84 1.61788 20.3367C1.91156 20.8334 2.30974 21.2434 2.77806 21.5313C3.24638 21.8191 3.77077 21.9762 4.30599 21.9889C4.84122 22.0016 5.37119 21.8696 5.85019 21.6043C6.32919 21.339 6.74283 20.9483 7.05541 20.466C7.368 19.9837 7.57014 19.4242 7.6444 18.8358C7.71867 18.2474 7.66281 17.6479 7.48167 17.0888H14.4769C14.296 17.6419 14.2378 18.2352 14.3074 18.8185C14.377 19.4019 14.5722 19.958 14.8765 20.4398C15.1808 20.9217 15.5852 21.315 16.0556 21.5866C16.5259 21.8582 17.0483 22 17.5785 22C18.1087 22 18.6311 21.8582 19.1014 21.5866C19.5718 21.315 19.9762 20.9217 20.2805 20.4398C20.5849 19.958 20.78 19.4019 20.8496 18.8185C20.9192 18.2352 20.861 17.6419 20.6802 17.0888H20.9001C21.1918 17.0888 21.4716 16.9602 21.6779 16.7313C21.8841 16.5024 22 16.1919 22 15.8682V10.9856C21.9966 10.8003 21.9553 10.6182 21.879 10.4532C21.8028 10.2883 21.6937 10.1448 21.5601 10.0336ZM19.8003 11.5715V14.6475H16.5006V8.64204L19.8003 11.5715ZM5.5019 18.3094C5.5019 18.5508 5.43739 18.7868 5.31653 18.9876C5.19568 19.1883 5.0239 19.3447 4.82293 19.4371C4.62195 19.5295 4.4008 19.5537 4.18745 19.5066C3.97409 19.4595 3.77811 19.3432 3.62429 19.1725C3.47047 19.0018 3.36572 18.7843 3.32328 18.5475C3.28084 18.3108 3.30263 18.0653 3.38587 17.8423C3.46912 17.6193 3.61009 17.4286 3.79097 17.2945C3.97184 17.1604 4.18449 17.0888 4.40202 17.0888C4.69373 17.0888 4.97348 17.2174 5.17975 17.4463C5.38602 17.6752 5.5019 17.9857 5.5019 18.3094ZM11.0013 14.6475H2.20228V2.44125H14.3009V14.6475H11.0013ZM18.7004 18.3094C18.7004 18.5508 18.6359 18.7868 18.515 18.9876C18.3942 19.1883 18.2224 19.3447 18.0214 19.4371C17.8204 19.5295 17.5993 19.5537 17.3859 19.5066C17.1726 19.4595 16.9766 19.3432 16.8228 19.1725C16.669 19.0018 16.5642 18.7843 16.5218 18.5475C16.4793 18.3108 16.5011 18.0653 16.5844 17.8423C16.6676 17.6193 16.8086 17.4286 16.9894 17.2945C17.1703 17.1604 17.383 17.0888 17.6005 17.0888C17.8922 17.0888 18.172 17.2174 18.3782 17.4463C18.5845 17.6752 18.7004 17.9857 18.7004 18.3094Z" fill="white"/>
</svg>
