<svg width="26" height="22" viewBox="0 0 26 22" fill="none" xmlns="http://www.w3.org/2000/svg">
<path d="M18.3182 12.5714C16.9 12.5714 14.69 13.1057 13 14.1429C11.31 13.09 9.1 12.5714 7.68182 12.5714C5.11727 12.5714 0 14.2686 0 17.6786V22H26V17.6786C26 14.2686 20.8827 12.5714 18.3182 12.5714ZM13.5909 19.6429H1.77273V17.6786C1.77273 16.83 4.79818 14.9286 7.68182 14.9286C10.5655 14.9286 13.5909 16.83 13.5909 17.6786V19.6429ZM24.2273 19.6429H15.3636V17.6786C15.3636 16.9557 15.1273 16.3271 14.7491 15.7614C15.7891 15.29 17.0655 14.9286 18.3182 14.9286C21.2018 14.9286 24.2273 16.83 24.2273 17.6786V19.6429ZM7.68182 11C9.96273 11 11.8182 8.53286 11.8182 5.5C11.8182 2.46714 9.96273 0 7.68182 0C5.40091 0 3.54545 2.46714 3.54545 5.5C3.54545 8.53286 5.40091 11 7.68182 11ZM7.68182 2.35714C8.98182 2.35714 10.0455 3.77143 10.0455 5.5C10.0455 7.22857 8.98182 8.64286 7.68182 8.64286C6.38182 8.64286 5.31818 7.22857 5.31818 5.5C5.31818 3.77143 6.38182 2.35714 7.68182 2.35714ZM18.3182 11C20.5991 11 22.4545 8.53286 22.4545 5.5C22.4545 2.46714 20.5991 0 18.3182 0C16.0373 0 14.1818 2.46714 14.1818 5.5C14.1818 8.53286 16.0373 11 18.3182 11ZM18.3182 2.35714C19.6182 2.35714 20.6818 3.77143 20.6818 5.5C20.6818 7.22857 19.6182 8.64286 18.3182 8.64286C17.0182 8.64286 15.9545 7.22857 15.9545 5.5C15.9545 3.77143 17.0182 2.35714 18.3182 2.35714Z" fill="white"/>
</svg>
