<svg width="24" height="24" viewBox="0 0 24 24" fill="none" xmlns="http://www.w3.org/2000/svg">
<path d="M9.55556 3.44444L12 1M7.11111 16.8889L16.8889 7.11111M12 23L14.4444 20.5556M17.5 20.5556C18.3104 20.5556 19.0876 20.2336 19.6606 19.6606C20.2336 19.0876 20.5556 18.3104 20.5556 17.5C20.5556 16.6896 20.2336 15.9124 19.6606 15.3394C19.0876 14.7664 18.3104 14.4444 17.5 14.4444C16.6896 14.4444 15.9124 14.7664 15.3394 15.3394C14.7664 15.9124 14.4444 16.6896 14.4444 17.5C14.4444 18.3104 14.7664 19.0876 15.3394 19.6606C15.9124 20.2336 16.6896 20.5556 17.5 20.5556ZM6.5 9.55556C7.31038 9.55556 8.08758 9.23363 8.6606 8.6606C9.23363 8.08758 9.55556 7.31038 9.55556 6.5C9.55556 5.68962 9.23363 4.91242 8.6606 4.3394C8.08758 3.76637 7.31038 3.44444 6.5 3.44444C5.68962 3.44444 4.91242 3.76637 4.3394 4.3394C3.76637 4.91242 3.44444 5.68962 3.44444 6.5C3.44444 7.31038 3.76637 8.08758 4.3394 8.6606C4.91242 9.23363 5.68962 9.55556 6.5 9.55556ZM4.05556 23C4.86594 23 5.64313 22.6781 6.21616 22.1051C6.78919 21.532 7.11111 20.7548 7.11111 19.9444C7.11111 19.1341 6.78919 18.3569 6.21616 17.7838C5.64313 17.2108 4.86594 16.8889 4.05556 16.8889C3.24517 16.8889 2.46798 17.2108 1.89495 17.7838C1.32192 18.3569 1 19.1341 1 19.9444C1 20.7548 1.32192 21.532 1.89495 22.1051C2.46798 22.6781 3.24517 23 4.05556 23ZM19.9444 7.11111C20.7548 7.11111 21.532 6.78919 22.105 6.21616C22.6781 5.64313 23 4.86594 23 4.05556C23 3.24517 22.6781 2.46798 22.105 1.89495C21.532 1.32192 20.7548 1 19.9444 1C19.1341 1 18.3569 1.32192 17.7838 1.89495C17.2108 2.46798 16.8889 3.24517 16.8889 4.05556C16.8889 4.86594 17.2108 5.64313 17.7838 6.21616C18.3569 6.78919 19.1341 7.11111 19.9444 7.11111Z" stroke="#1C39BB" stroke-width="2" stroke-linecap="round" stroke-linejoin="round"/>
</svg>
